<svg width="20" height="18" viewBox="0 0 20 18" fill="none" xmlns="http://www.w3.org/2000/svg">
<path d="M1 7.14286C1 6.03829 1.89543 5.14286 3 5.14286H4.46875C4.95955 5.14286 5.43322 4.96238 5.79959 4.63579L9.33458 1.4846C9.97917 0.91 11 1.36755 11 2.23107V15.7689C11 16.6324 9.97917 17.09 9.33458 16.5154L5.51518 13.1107C5.332 12.9474 5.09516 12.8571 4.84976 12.8571H3C1.89543 12.8571 1 11.9617 1 10.8571V7.14286Z" fill="white" stroke="white"/>
<path d="M13 4C13 4 15 6 15 9C15 12 13 14 13 14" stroke="white" stroke-linecap="round"/>
<path d="M17 2C17 2 19 5 19 9C19 13 17 16 17 16" stroke="white" stroke-linecap="round"/>
</svg>
